<?xml version="1.0" standalone="no"?>
<!DOCTYPE svg PUBLIC "-//W3C//DTD SVG 20010904//EN"
 "http://www.w3.org/TR/2001/REC-SVG-20010904/DTD/svg10.dtd">
<svg version="1.0" xmlns="http://www.w3.org/2000/svg"
 width="342.000000pt" height="311.000000pt" viewBox="0 0 342.000000 311.000000"
 preserveAspectRatio="xMidYMid meet">

<g transform="translate(0.000000,311.000000) scale(0.100000,-0.100000)"
 stroke="none">
<path d="M1570 3040 c-206 -26 -437 -104 -595 -200 -300 -183 -534 -477 -614
-770 -11 -41 -39 -217 -61 -390 -56 -441 -97 -766 -104 -828 l-5 -52 695 0
695 0 14 -34 c49 -118 206 -125 266 -12 l24 46 689 0 689 0 -7 63 c-4 34 -27
224 -51 422 -101 817 -102 822 -192 1004 -189 384 -528 633 -990 727 -140 28
-334 38 -453 24z m153 -149 c6 -25 0 -31 -30 -31 -22 0 -23 -3 -23 -85 0 -47
-4 -85 -9 -85 -5 0 -16 -3 -25 -6 -14 -5 -15 4 -10 73 6 91 -2 112 -35 91 -18
-11 -23 -11 -31 1 -16 26 7 50 53 54 98 9 104 8 110 -12z m122 -23 l17 -43 16
33 c13 27 21 32 50 32 32 0 34 -1 20 -17 -34 -41 -68 -114 -68 -147 0 -41 -11
-51 -48 -41 -15 4 -21 10 -14 12 19 7 14 61 -13 138 -14 39 -25 71 -25 73 0 1
11 2 24 2 19 0 28 -9 41 -42z m-370 -23 c26 -26 32 -63 14 -96 -8 -15 -6 -25
10 -45 12 -15 18 -30 15 -35 -10 -18 -44 -9 -60 16 -24 37 -46 33 -32 -6 12
-34 11 -34 -18 -43 -19 -6 -23 1 -43 76 -12 46 -23 96 -24 113 -2 27 2 30 33
36 64 12 81 9 105 -16z m712 -13 c10 -6 10 -17 3 -42 -13 -46 -14 -45 16 -59
24 -11 26 -9 41 29 16 40 27 47 50 32 10 -6 4 -28 -22 -91 -19 -45 -35 -89
-35 -97 0 -18 -39 -19 -46 -1 -2 7 2 29 10 48 15 35 14 35 -15 46 -28 11 -31
10 -40 -13 -5 -14 -9 -31 -9 -39 0 -20 -12 -24 -39 -14 -17 7 -21 13 -13 22 5
6 22 51 37 100 26 84 36 96 62 79z m-938 -59 c12 -15 19 -34 16 -44 -4 -12 1
-19 14 -24 26 -8 46 -57 32 -83 -11 -20 -109 -68 -119 -57 -3 3 -7 12 -8 20
-1 8 -21 49 -43 90 l-41 76 43 18 c87 37 81 37 106 4z m1167 -39 c22 -15 23
-19 10 -33 -13 -16 -66 -115 -66 -125 0 -3 18 -15 40 -26 42 -22 47 -29 29
-47 -9 -9 -29 -3 -82 24 -55 29 -66 38 -53 45 18 10 86 139 86 163 0 19 5 19
36 -1z m-1376 -34 c0 -13 58 -109 83 -137 16 -19 18 -25 7 -38 -22 -26 -37
-17 -70 40 -18 31 -44 70 -58 87 -25 29 -25 31 -7 44 22 16 45 18 45 4z m1573
-88 c15 -16 12 -21 -36 -76 l-51 -59 28 -23 c15 -13 34 -24 42 -24 20 0 17
-13 -7 -28 -18 -12 -26 -10 -57 13 -83 58 -86 63 -49 87 12 9 40 40 62 71 22
31 43 56 46 57 3 0 13 -8 22 -18z m-1715 -94 c26 -27 51 -48 56 -48 5 0 22 12
37 26 28 27 49 25 49 -4 -1 -16 -73 -77 -102 -87 -7 -2 -38 28 -68 67 -81 103
-78 97 -55 114 17 13 20 12 28 -3 5 -10 30 -39 55 -65z m518 -149 c81 -15 179
-55 237 -96 l47 -35 0 -554 c0 -305 -2 -554 -5 -554 -3 0 -30 18 -60 41 -66
50 -129 74 -241 94 -147 26 -300 14 -512 -38 -51 -13 -95 -20 -98 -16 -2 4 12
148 31 321 19 172 42 378 50 458 8 80 17 166 20 193 5 45 5 47 -20 47 -21 0
-26 -6 -31 -39 -6 -36 -10 -40 -43 -46 -62 -11 -71 -16 -71 -38 0 -30 -9 -41
-50 -62 -19 -10 -45 -26 -58 -36 -13 -10 -36 -20 -52 -24 -16 -4 -31 -14 -34
-23 -5 -15 -74 -522 -122 -892 -22 -168 -19 -160 -59 -160 -22 0 -35 5 -35 13
0 7 16 134 36 282 31 237 113 876 114 883 0 1 22 2 49 2 73 0 97 13 125 67 41
82 119 137 207 146 31 3 89 15 130 27 167 50 315 63 445 39z m1044 -29 c58
-17 132 -34 165 -37 49 -5 69 -13 110 -44 28 -21 61 -57 75 -80 41 -67 53 -77
117 -84 82 -9 83 -10 83 -53 0 -49 116 -993 135 -1099 6 -33 5 -33 -33 -33
l-38 0 -18 138 c-51 401 -117 889 -121 907 -5 18 -117 80 -177 99 -12 3 -18
16 -18 33 0 41 -12 53 -56 60 -44 7 -54 17 -54 56 0 23 -4 27 -30 27 -17 0
-30 -5 -30 -12 0 -7 11 -110 25 -228 54 -466 86 -773 81 -778 -3 -3 -70 9
-149 26 -244 53 -390 53 -563 -3 -49 -15 -99 -40 -132 -65 -29 -22 -55 -40
-57 -40 -3 0 -5 249 -5 553 l0 554 23 20 c91 83 241 124 432 118 110 -3 146
-8 235 -35z m-1647 -267 c3 -5 -6 -105 -19 -223 -56 -521 -75 -703 -71 -707 3
-2 58 10 124 26 174 44 293 61 428 61 179 0 299 -32 385 -101 34 -28 40 -38
40 -71 0 -21 -3 -38 -7 -38 -4 0 -23 16 -43 35 -70 68 -228 102 -440 92 -115
-5 -308 -33 -388 -56 -18 -6 -65 -13 -104 -17 l-71 -7 7 44 c7 45 73 576 101
817 8 74 18 138 21 143 6 11 31 12 37 2z m1884 -78 c14 -95 67 -541 87 -740 8
-77 18 -149 22 -159 9 -23 -4 -22 -231 20 -125 23 -179 27 -325 28 -236 1
-289 -11 -420 -98 l-55 -36 -3 46 c-2 25 2 52 9 60 23 28 142 76 232 95 174
36 364 23 600 -41 66 -17 120 -30 122 -28 7 6 -50 575 -84 858 -9 72 -7 83 17
78 13 -2 20 -23 29 -83z m-1991 -77 c-4 -18 -15 -120 -26 -228 -50 -490 -75
-670 -93 -682 -41 -26 -45 -1 -22 161 8 58 24 193 36 300 25 236 54 455 63
470 4 6 16 11 28 11 18 0 20 -4 14 -32z m2135 -293 c20 -176 44 -381 53 -455
20 -170 20 -170 -3 -170 -40 0 -35 -25 -96 540 -14 129 -28 262 -31 295 -3 33
-7 73 -10 88 -6 26 -4 28 23 25 l28 -3 36 -320z m-1521 -655 l-65 -6 55 -5
c39 -4 25 -6 -50 -6 -58 -1 -139 2 -180 6 l-75 6 65 6 c36 3 121 6 190 6 96 0
110 -2 60 -7z m1125 -9 c25 -5 -62 -9 -227 -9 -178 0 -280 -4 -304 -12 -19 -7
-38 -10 -41 -7 -3 3 17 12 43 21 37 11 103 15 269 15 121 0 238 -4 260 -8z"/>
<path d="M1395 2810 c-11 -17 5 -50 25 -50 22 0 30 19 18 43 -10 19 -33 23
-43 7z"/>
<path d="M1180 2740 c-11 -7 -12 -12 -3 -21 15 -15 43 -5 43 16 0 17 -18 19
-40 5z"/>
<path d="M1221 2671 c-16 -10 -6 -51 13 -51 8 0 19 7 26 15 10 12 10 18 0 30
-14 17 -20 18 -39 6z"/>
<path d="M1073 2258 c-65 -15 -83 -23 -83 -37 0 -16 4 -16 73 1 149 39 313 35
456 -13 83 -27 99 -19 32 15 -114 58 -320 73 -478 34z"/>
<path d="M1121 2109 c-80 -15 -141 -40 -141 -56 0 -11 5 -13 18 -8 9 4 53 17
97 27 113 28 298 21 403 -15 54 -19 72 -22 72 -12 0 18 -96 53 -178 65 -80 12
-210 11 -271 -1z"/>
<path d="M1170 1974 c-137 -21 -221 -47 -204 -64 5 -5 38 -1 84 12 60 17 105
21 220 22 144 0 180 -6 283 -49 12 -5 17 -3 17 8 0 44 -265 91 -400 71z"/>
<path d="M1162 1810 c-109 -12 -212 -39 -212 -57 0 -9 7 -13 18 -10 104 29
190 40 302 40 121 -1 147 -5 283 -50 33 -10 17 18 -18 33 -92 38 -251 57 -373
44z"/>
<path d="M1060 1649 c-89 -17 -130 -31 -130 -46 0 -12 7 -13 28 -8 186 48 373
45 535 -9 58 -19 67 -20 65 -7 -11 54 -338 101 -498 70z"/>
<path d="M1045 1509 c-81 -13 -135 -31 -135 -44 0 -9 12 -9 52 1 91 24 221 37
308 31 76 -6 232 -40 285 -62 17 -8 18 -7 7 7 -15 19 -133 57 -215 69 -75 10
-233 10 -302 -2z"/>
<path d="M1096 1390 c-78 -13 -193 -49 -207 -66 -14 -18 -21 -18 96 12 180 46
357 43 505 -10 36 -13 74 -27 85 -30 11 -4 2 4 -20 18 -100 65 -308 99 -459
76z"/>
<path d="M2042 2265 c-72 -16 -172 -59 -172 -74 0 -14 -4 -14 56 8 139 53 346
64 485 25 62 -17 88 -12 55 11 -56 41 -294 58 -424 30z"/>
<path d="M2081 2109 c-109 -19 -207 -56 -191 -72 3 -3 43 6 90 20 121 37 313
43 420 14 76 -20 87 -21 76 -2 -22 35 -277 61 -395 40z"/>
<path d="M2107 1970 c-79 -10 -203 -45 -212 -61 -13 -21 5 -21 67 0 156 51
293 52 502 5 22 -5 28 -4 24 7 -11 35 -248 65 -381 49z"/>
<path d="M2033 1794 c-70 -15 -135 -43 -141 -61 -3 -9 7 -9 39 2 138 49 332
59 492 27 63 -13 87 -15 87 -6 0 12 -49 28 -139 44 -75 14 -264 11 -338 -6z"/>
<path d="M2061 1640 c-112 -25 -161 -44 -161 -63 0 -12 14 -11 74 9 149 47
370 56 504 20 49 -13 53 -13 50 2 -5 25 -94 42 -243 47 -106 4 -148 1 -224
-15z"/>
<path d="M2085 1506 c-81 -16 -153 -42 -175 -64 -13 -13 -13 -14 5 -7 11 4 63
18 115 32 118 31 311 35 428 9 84 -18 92 -19 92 -8 0 5 -33 16 -72 26 -97 24
-301 30 -393 12z"/>
<path d="M2095 1385 c-68 -13 -233 -80 -222 -91 1 -2 34 8 72 22 184 67 373
71 568 10 83 -25 49 6 -39 36 -103 35 -261 45 -379 23z"/>
<path d="M2270 668 c-351 -211 -748 -209 -1075 8 l-51 34 -322 -2 -323 -3 84
-105 c212 -265 467 -430 780 -505 302 -71 604 -56 892 46 251 88 470 254 642
486 29 40 53 74 53 77 0 3 -136 7 -301 8 l-301 3 -78 -47z m150 -88 c0 -11
-11 -27 -24 -36 -15 -9 -23 -21 -19 -31 6 -14 18 -14 56 2 13 6 17 2 17 -18 0
-17 -7 -26 -22 -30 -18 -5 -19 -8 -9 -21 12 -14 16 -14 42 5 32 22 59 20 59
-6 0 -13 -59 -57 -94 -71 -7 -3 -29 20 -51 53 -20 32 -47 68 -59 81 -18 20
-19 25 -6 32 8 5 31 20 50 33 43 31 60 33 60 7z m-1309 -21 c32 -34 36 -49 15
-49 -8 0 -21 -3 -29 -6 -10 -3 -18 2 -22 15 -14 44 -75 10 -75 -41 0 -21 6
-31 24 -38 50 -19 38 -56 -14 -45 -55 12 -76 75 -45 135 34 66 99 79 146 29z
m163 -75 c32 -21 40 -56 21 -101 -37 -88 -103 -119 -144 -67 -25 32 -26 52 -6
102 32 76 78 100 129 66z m960 -10 c21 -20 21 -21 -14 -39 -37 -19 -38 -44 -6
-82 20 -23 27 -26 38 -15 11 11 9 16 -12 33 -24 19 -25 20 -6 34 27 20 31 19
55 -11 32 -41 27 -71 -14 -91 -63 -30 -121 12 -132 95 -5 34 -2 44 20 66 30
30 49 33 71 10z m-804 -47 c0 -7 -9 -44 -19 -82 -11 -38 -19 -70 -18 -71 1 0
21 -6 45 -13 44 -12 47 -17 33 -40 -7 -11 -18 -11 -64 -1 -30 7 -60 16 -66 19
-7 4 -2 33 14 84 14 43 25 87 25 97 0 15 7 20 25 20 14 0 25 -6 25 -13z m630
-16 c0 -12 -11 -23 -31 -30 -36 -13 -34 -35 4 -39 32 -4 37 -31 7 -39 -12 -3
-20 -14 -20 -25 0 -17 4 -19 28 -13 49 14 67 11 70 -10 2 -18 -6 -23 -63 -37
-36 -8 -67 -13 -69 -9 -2 3 -7 26 -11 51 -4 25 -13 67 -21 94 -8 27 -13 50
-11 51 5 5 83 23 100 24 10 1 17 -6 17 -18z m-448 -101 l-5 -80 42 0 c35 0 41
-3 41 -20 0 -19 -5 -21 -67 -18 l-68 3 5 45 c2 25 5 69 5 98 0 49 1 52 26 52
l26 0 -5 -80z m198 16 c0 -88 4 -96 51 -96 32 0 39 -4 39 -19 0 -16 -10 -20
-61 -26 -33 -4 -62 -6 -63 -4 -2 2 -6 50 -10 107 l-6 102 25 0 c24 0 25 -2 25
-64z"/>
<path d="M1201 421 c-12 -16 -21 -41 -21 -55 0 -38 33 -34 55 7 32 60 4 101
-34 48z"/>
</g>
</svg>
